Coordinates
version=1
nRows=17
nColumns=36
inDegrees=yes

Units are S.I. units (second, meters, Newtons, ...)
If the header above contains a line with 'inDegrees', this indicates whether rotational values are in degrees (yes) or radians (no).

endheader
time	pelvis_tilt	pelvis_list	pelvis_rotation	pelvis_tx	pelvis_ty	pelvis_tz	hip_flexion_r	hip_adduction_r	hip_rotation_r	knee_angle_r	knee_angle_r_beta	ankle_angle_r	subtalar_angle_r	mtp_angle_r	hip_flexion_l	hip_adduction_l	hip_rotation_l	knee_angle_l	knee_angle_l_beta	ankle_angle_l	subtalar_angle_l	mtp_angle_l	lumbar_extension	lumbar_bending	lumbar_rotation	arm_flex_r	arm_add_r	arm_rot_r	elbow_flex_r	pro_sup_r	arm_flex_l	arm_add_l	arm_rot_l	elbow_flex_l	pro_sup_l
      4.20338980	     -6.33481233	     -1.23717159	      2.53452060	      0.17587878	      0.93631934	     -0.06074291	      2.80989380	      1.15329981	      0.48682970	      0.81888421	      0.01429223	     -2.29369667	     -5.41577025	     -7.49999987	      2.51821024	     -0.31096652	      4.42950658	      0.52248071	      0.00911901	      4.18655858	      0.24048330	     -7.49999987	      5.63063725	      0.50335113	      2.51574732	    175.19342222	    -15.07242203	     57.58108052	     31.60671752	     77.55641008	    168.73945511	     -9.21214772	     44.87633105	     33.76143978	     82.58940977
      4.22033900	     -6.40071291	     -1.24247719	      2.53103859	      0.17608382	      0.93642481	     -0.06084701	      2.89153794	      1.15181733	      0.51928229	      0.83183069	      0.01451818	     -2.40703054	     -5.67176644	     -7.49999987	      2.59419232	     -0.32243915	      4.52376215	      0.52485762	      0.00916049	      4.13470397	      0.01774240	     -7.49999987	      5.76970955	      0.50260223	      2.65390614	    175.12284937	    -15.08961634	     57.01728639	     31.67686181	     80.36205092	    168.34448416	     -9.11077797	     43.36439063	     33.97349902	     87.18917203
      4.23728810	     -6.36126613	     -1.23838085	      2.55613149	      0.17661517	      0.93703509	     -0.06093005	      2.83953144	      1.14899261	      0.35686572	      0.83392096	      0.01455467	     -2.38558141	     -5.55398229	     -7.49999987	      2.54098248	     -0.33626519	      4.48967330	      0.52215483	      0.00911332	      4.13089182	      0.07682622	     -7.49999987	      5.70968244	      0.48587337	      2.60100381	    175.20057074	    -15.17260812	     57.00013886	     31.89925201	     79.26907560	    168.40711526	     -9.15795671	     43.40961732	     34.20901054	     85.68040307
      4.25423730	     -6.36426344	     -1.23338035	      2.57442199	      0.17704949	      0.93805642	     -0.06095750	      2.82588882	      1.15182767	      0.34126014	      0.82920022	      0.01447227	     -2.44428020	     -5.64394125	     -7.49999987	      2.52788806	     -0.34176104	      4.49055905	      0.52581996	      0.00917729	      4.05641047	     -0.01001827	     -7.49999987	      5.70368211	      0.47272152	      2.61125561	    175.40137050	    -15.23127223	     57.32327400	     32.02303760	     78.03712136	    168.54511635	     -9.17317310	     43.69850087	     34.28057883	     83.93762437
      4.27118640	     -6.32030533	     -1.21827349	      2.56494985	      0.17715668	      0.93894976	     -0.06110516	      2.75001998	      1.13909279	      0.27403883	      0.81246695	      0.01418022	     -2.42005011	     -5.54628460	     -7.49999987	      2.45552750	     -0.32807777	      4.36752524	      0.52736367	      0.00920423	      3.99645020	      0.02279828	     -7.49999987	      5.67096659	      0.48204894	      2.64622908	    175.47875779	    -15.28867930	     57.43089784	     32.38350777	     77.23075417	    168.62321423	     -9.22507825	     43.77266654	     34.53173882	     82.81595358
      4.28813560	     -6.32879388	     -1.19529752	      2.59023131	      0.17705714	      0.93928406	     -0.06144382	      2.72854057	      1.10255395	      0.20958533	      0.78669868	      0.01373048	     -2.48667866	     -5.53056696	     -7.49999987	      2.45996536	     -0.27924769	      4.35357700	      0.53297394	      0.00930215	      3.86583035	     -0.07530191	     -7.49999987	      5.63299242	      0.46953783	      2.77510557	    175.74228191	    -15.19153307	     57.32252176	     32.32690133	     76.57274520	    168.81379231	     -9.15141956	     43.81867454	     34.47980362	     81.91589642
      4.30508470	     -6.36221942	     -1.16075640	      2.57569538	      0.17697672	      0.93934755	     -0.06182957	      2.75407135	      1.03796951	      0.22859568	      0.77908907	      0.01359767	     -2.53020658	     -5.54017971	     -7.49999987	      2.49087744	     -0.20159232	      4.27724786	      0.53539214	      0.00934436	      3.76430462	     -0.13270051	     -7.49999987	      5.60559976	      0.44257126	      2.88900156	    175.95917025	    -15.00626844	     57.01516350	     32.16640671	     75.20563999	    169.02855244	     -9.04408976	     43.94454431	     34.43848899	     79.93017345
      4.32203390	     -6.53237413	     -1.13359477	      2.59702577	      0.17712023	      0.93957083	     -0.06241462	      2.92266891	      0.95742411	      0.02471370	      0.75318153	      0.01314550	     -2.55543895	     -5.26476909	     -7.49999987	      2.67724211	     -0.10987956	      4.33997120	      0.54436927	      0.00950104	      3.62092203	     -0.32324033	     -7.49999987	      5.98758781	      0.42459766	      2.99157151	    175.66978997	    -15.06631930	     56.85889848	     32.70491145	     74.65162107	    168.63955094	     -9.13392119	     44.00194173	     34.93660622	     79.14196071
      4.33898310	     -6.52730019	     -1.07286088	      2.54723747	      0.17709513	      0.94034749	     -0.06277155	      2.94022561	      0.84727570	      0.15920080	      0.75567859	      0.01318908	     -2.62261983	     -5.29389677	     -7.49999987	      2.66571451	     -0.00257990	      4.19319922	      0.53908522	      0.00940881	      3.41384830	     -0.33994483	     -7.49999987	      5.74148759	      0.39868237	      2.95891948	    176.13334613	    -14.89298110	     56.69344468	     32.82849583	     74.89251488	    169.25838179	     -9.20792088	     43.81496756	     35.04082967	     79.43147287
      4.35593220	     -6.50719718	     -1.03069738	      2.52505847	      0.17706630	      0.94140853	     -0.06275832	      2.93039290	      0.75500580	      0.18726129	      0.74390286	      0.01298355	     -2.66864704	     -5.26697598	     -7.49999987	      2.61611336	      0.07956489	      4.21943987	      0.53554757	      0.00934707	      3.39261150	     -0.32333789	     -7.49999987	      5.73268443	      0.38198081	      2.97268014	    176.16689338	    -14.75575846	     56.67473597	     32.93937476	     74.93816896	    169.36190224	     -9.16576667	     43.77943450	     35.11082953	     79.48435501
      4.37288140	     -6.44558429	     -0.94991984	      2.47531342	      0.17678986	      0.94243011	     -0.06245353	      2.88124473	      0.63527516	      0.28569509	      0.73093913	      0.01275729	     -2.78881416	     -5.14997031	     -7.49999987	      2.52774085	      0.19498397	      4.18540025	      0.53055397	      0.00925991	      3.26703837	     -0.29607271	     -7.49999987	      5.55356460	      0.38302191	      2.95423704	    176.30675085	    -14.61978646	     56.57650282	     33.35207360	     75.04874211	    169.65505489	     -9.36847460	     43.59503443	     35.34868735	     79.60690414
      4.38983050	     -6.22717628	     -0.96249866	      2.47626880	      0.17670284	      0.94446008	     -0.06262294	      2.64315592	      0.64307569	      0.18845425	      0.72873543	      0.01271883	     -2.75603156	     -4.95195577	     -7.49999987	      2.27996571	      0.18258730	      4.09085154	      0.52239946	      0.00911759	      3.21597803	     -0.21360879	     -7.49999987	      5.37898088	      0.46324420	      2.69708760	    175.18361123	    -14.92703103	     52.57579053	     35.44579392	     82.45156488	    169.02161106	     -9.65015510	     40.59865772	     37.00280461	     88.30808798
      4.40677970	     -6.04709291	     -0.93085399	      2.44444870	      0.17687489	      0.94610531	     -0.06320253	      2.43364969	      0.60023270	      0.16551362	      0.72317210	      0.01262173	     -2.84685865	     -4.84312801	     -7.49999987	      2.07248926	      0.22082772	      3.98635625	      0.51028207	      0.00890610	      3.06822171	     -0.18446614	     -7.49999987	      5.11164490	      0.53669764	      2.60678195	    175.22590996	    -14.98178136	     52.64665938	     36.16918869	     82.46919664	    169.22158520	     -9.89461258	     40.47262976	     37.52433449	     88.30749295
      4.42372880	     -6.01442631	     -0.88070921	      2.43067653	      0.17710194	      0.94528206	     -0.06360257	      2.38398720	      0.52503442	      0.15569310	      0.73602099	      0.01284599	     -2.89370421	     -4.81428787	     -7.49999987	      2.02459885	      0.28373696	      3.99796763	      0.50597592	      0.00883095	      3.05092294	     -0.16532930	     -7.49999987	      5.12846029	      0.52368936	      2.61124216	    175.21000494	    -14.89991893	     52.67611919	     36.28505988	     82.47322736	    169.27297201	     -9.86033749	     40.46337783	     37.59085117	     88.30982644
      4.44067800	     -5.89310098	     -0.84632561	      2.45077371	      0.17691647	      0.94312132	     -0.06352804	      2.23906890	      0.46774087	      0.10351690	      0.72696670	      0.01268796	     -2.94468662	     -4.76311812	     -7.49999987	      1.89667999	      0.32203298	      4.00873617	      0.49608033	      0.00865824	      3.00686073	     -0.13799481	     -7.49999987	      4.95139169	      0.51634664	      2.53178464	    175.42449765	    -14.88605496	     53.55840844	     36.40666342	     80.31793812	    169.68787525	     -9.83791304	     41.17602977	     37.14329016	     85.48970267
      4.45762710	     -5.85287340	     -0.82309776	      2.46124764	      0.17655044	      0.94177982	     -0.06308750	      2.19802797	      0.43325951	      0.03543746	      0.73818099	      0.01288369	     -2.91903281	     -4.69980126	     -7.49999987	      1.86530965	      0.33637003	      3.99101916	      0.49261212	      0.00859770	      3.05552782	     -0.01025907	     -7.49999987	      4.89677820	      0.50744555	      2.55405200	    175.61446123	    -14.54190931	     53.76861674	     35.75251830	     81.71859395	    169.87917848	     -9.67068641	     40.66424129	     36.51943800	     88.71068359
      4.47457630	     -6.03301074	     -0.80882782	      2.44189382	      0.17649110	      0.94175899	     -0.06290860	      2.39294578	      0.40856974	     -0.05123194	      0.73565821	      0.01283966	     -3.00162114	     -4.62998955	     -7.49999987	      2.07367468	      0.33607820	      3.72635689	      0.49507661	      0.00864072	      3.12571278	      0.48322220	     -7.49999987	      5.28385233	      0.46694707	      2.64504627	    175.25848840	    -14.54389846	     53.72624126	     35.90885389	     80.94801418	    169.54864310	     -9.72854566	     40.68949608	     36.64040505	     87.67383810
